<?xml version="1.0" standalone="no"?>
<!DOCTYPE svg PUBLIC "-//W3C//DTD SVG 20010904//EN"
 "http://www.w3.org/TR/2001/REC-SVG-20010904/DTD/svg10.dtd">
<svg version="1.0" xmlns="http://www.w3.org/2000/svg"
 width="1125.000000pt" height="1125.000000pt" viewBox="0 0 1125.000000 1125.000000"
 preserveAspectRatio="xMidYMid meet">
<metadata>
Created by potrace 1.11, written by Peter Selinger 2001-2013
</metadata>
<g transform="translate(0.000000,1125.000000) scale(0.100000,-0.100000)"
fill="#000000" stroke="none">
<path d="M0 5625 l0 -5625 5625 0 5625 0 0 5625 0 5625 -5625 0 -5625 0 0
-5625z m4543 1815 c9 -11 17 -23 17 -25 0 -8 -58 23 -65 35 -12 19 31 10 48
-10z m485 -165 c7 -44 20 -87 28 -96 27 -30 219 -59 394 -59 170 -1 264 -15
788 -121 166 -33 185 -33 203 2 4 8 22 60 39 117 18 56 36 102 41 102 5 0 9 7
9 15 0 8 5 15 10 15 6 0 10 -7 10 -17 0 -9 11 -39 24 -67 24 -50 49 -71 91
-78 18 -3 20 -12 21 -82 1 -54 6 -83 17 -93 20 -20 160 -80 232 -99 33 -9 96
-33 140 -54 44 -21 105 -46 135 -55 30 -10 59 -22 64 -26 6 -5 18 -9 27 -9 33
0 238 -114 269 -150 3 -3 21 -18 40 -34 40 -33 170 -178 170 -190 0 -2 15 -30
33 -63 35 -63 86 -221 113 -348 9 -44 25 -111 36 -150 10 -38 25 -108 33 -155
7 -47 19 -107 25 -135 7 -27 19 -106 27 -175 30 -248 29 -400 -3 -400 -8 0
-19 -10 -25 -23 -5 -12 -26 -33 -45 -46 -18 -13 -34 -27 -34 -31 0 -17 -127
-130 -146 -130 -4 0 -17 -10 -30 -22 -46 -45 -62 -56 -98 -68 -20 -6 -42 -17
-49 -23 -7 -7 -23 -21 -35 -31 -22 -19 -22 -19 -22 7 0 20 5 27 20 27 11 0 20
7 20 15 0 22 -16 18 -43 -9 -13 -13 -33 -29 -45 -35 -25 -13 -29 -31 -8 -31 8
0 16 -6 19 -14 4 -9 -4 -16 -24 -20 -21 -4 -29 -11 -27 -23 2 -15 -4 -18 -39
-18 -45 0 -65 -11 -44 -24 9 -6 0 -20 -34 -55 -26 -25 -53 -46 -61 -46 -8 0
-14 -4 -14 -10 0 -5 -17 -21 -38 -34 -34 -21 -100 -74 -157 -125 -11 -10 -29
-21 -40 -25 -11 -3 -33 -17 -49 -31 -16 -14 -34 -25 -40 -25 -6 0 -17 -9 -24
-20 -7 -11 -21 -20 -31 -20 -10 0 -29 -8 -42 -18 -13 -10 -49 -32 -79 -47 -30
-16 -73 -41 -95 -56 -149 -97 -408 -234 -430 -225 -10 4 -15 -1 -15 -14 0 -11
-6 -20 -14 -20 -8 0 -16 -6 -19 -14 -7 -18 -105 -64 -212 -101 -44 -15 -87
-35 -97 -46 -9 -11 -18 -14 -20 -8 -2 7 -12 7 -33 -1 -88 -35 -346 -122 -455
-154 -69 -21 -134 -41 -145 -46 -11 -4 -119 -40 -239 -80 -248 -81 -312 -107
-341 -139 -19 -22 -19 -23 0 -37 30 -22 78 -17 105 11 13 14 31 25 40 25 9 0
22 6 28 12 18 18 191 11 213 -8 8 -8 22 -14 30 -14 17 0 79 -55 102 -92 9 -15
17 -37 17 -48 0 -12 5 -30 11 -41 8 -16 1 -37 -40 -114 -86 -160 -136 -210
-294 -289 -63 -31 -123 -66 -133 -77 -17 -18 -16 -19 19 -19 21 0 37 4 37 10
0 5 20 15 45 21 25 6 45 15 45 20 0 5 9 9 20 9 11 0 28 8 38 17 10 10 29 24
41 31 20 11 24 9 49 -20 15 -18 35 -39 45 -47 9 -9 17 -23 17 -33 0 -10 5 -18
11 -18 8 0 10 -25 7 -77 -3 -67 -10 -91 -46 -165 -23 -48 -42 -92 -42 -97 0
-6 -28 -38 -63 -73 -47 -48 -75 -67 -117 -81 -116 -39 -222 -91 -238 -116 -11
-18 -10 -21 7 -21 11 0 28 10 38 23 13 17 29 24 59 25 23 1 54 9 70 17 16 8
36 15 43 15 8 0 26 11 40 24 27 24 91 43 91 26 0 -5 13 -24 29 -42 32 -37 41
-66 48 -152 4 -48 1 -67 -17 -100 -34 -65 -53 -92 -85 -120 -82 -70 -101 -86
-107 -86 -4 0 -32 -16 -62 -35 -30 -19 -58 -35 -61 -35 -3 0 -27 -9 -53 -21
-77 -34 -85 -37 -127 -44 -82 -13 -596 -42 -780 -44 -242 -3 -388 18 -529 75
-69 28 -196 105 -245 149 -66 58 -131 129 -131 143 0 5 -11 21 -25 36 -14 15
-25 33 -25 41 0 7 -4 15 -8 17 -14 5 -98 188 -117 253 -10 33 -21 64 -26 70
-5 5 -9 18 -9 30 0 11 -6 40 -14 65 -45 141 -60 258 -59 440 1 207 19 316 70
430 49 107 58 125 81 150 12 13 22 29 22 33 0 5 18 30 40 56 22 26 40 52 40
57 0 6 14 23 31 40 17 16 38 42 46 58 8 16 70 85 136 155 90 93 131 143 155
192 17 36 32 73 32 82 0 10 4 25 9 35 11 20 33 97 55 198 18 80 21 252 6 335
-5 30 -17 95 -26 146 -22 124 -15 168 37 221 22 23 45 42 52 42 7 0 26 7 42
16 24 13 48 14 120 9 50 -4 97 -11 107 -16 19 -10 34 17 19 35 -34 42 -113
461 -123 651 -2 45 0 50 20 53 12 2 22 -1 22 -6 0 -5 15 -12 33 -15 41 -7 118
-27 137 -37 8 -4 85 -8 170 -9 124 -2 161 1 185 13 17 9 37 16 45 16 72 1 293
129 386 224 50 50 124 154 124 173 0 5 11 20 24 33 14 12 28 37 31 54 4 17 16
51 27 76 11 25 27 61 35 80 9 19 20 43 24 52 5 10 9 24 9 32 0 20 79 96 100
96 8 0 42 14 74 30 51 26 69 30 142 30 45 0 85 -4 88 -9 3 -4 21 -11 41 -14
25 -4 57 -25 110 -73 111 -100 122 -121 124 -229 2 -95 20 -239 44 -340 16
-72 74 -195 133 -286 50 -75 181 -208 222 -226 16 -6 34 -18 40 -26 18 -22
188 -102 257 -122 33 -10 67 -20 75 -23 57 -19 354 -22 373 -3 6 6 29 11 52
11 22 0 49 7 59 15 11 8 30 15 42 15 23 0 56 15 171 76 66 36 188 139 228 194
20 28 41 50 46 50 5 0 11 11 15 24 3 14 14 32 24 41 10 9 33 47 50 83 18 37
35 74 40 83 5 9 12 38 15 65 4 27 12 54 17 60 16 21 30 196 24 294 -7 100 -37
245 -56 264 -5 5 -10 20 -10 32 0 21 -40 105 -64 134 -7 8 -16 22 -20 30 -3 8
-15 29 -25 45 -13 20 -18 42 -15 65 4 31 -1 41 -44 85 -55 57 -179 145 -205
145 -9 0 -17 5 -17 10 0 6 -8 10 -19 10 -10 0 -24 7 -31 15 -7 8 -29 15 -50
15 -21 0 -43 7 -50 15 -7 8 -21 15 -31 15 -10 0 -21 5 -24 10 -4 6 -10 8 -14
6 -4 -3 -49 4 -101 13 -113 22 -239 26 -353 11 -46 -6 -203 -12 -348 -13
l-264 -2 -3 -37 c-3 -33 2 -43 40 -78 25 -24 61 -46 86 -52 l42 -12 -58 -61
c-74 -77 -134 -152 -150 -188 -6 -15 -19 -30 -27 -33 -8 -4 -15 -14 -15 -24 0
-11 -4 -22 -10 -25 -5 -3 -10 -15 -10 -26 0 -11 -8 -39 -19 -62 -10 -23 -21
-50 -24 -59 -10 -28 -30 -21 -67 24 -19 23 -41 47 -48 52 -7 6 -18 16 -25 21
-29 24 -126 66 -177 76 -68 14 -204 5 -236 -16 -13 -8 -30 -15 -38 -15 -8 0
-31 -11 -51 -24 -20 -14 -42 -23 -49 -20 -9 4 -16 37 -21 104 -3 55 -11 102
-16 105 -5 4 -9 21 -9 38 0 18 -7 45 -15 61 -8 15 -15 36 -15 45 0 14 -30 76
-101 209 -9 18 -31 47 -49 65 -17 17 -39 44 -48 60 -9 15 -21 27 -27 27 -5 0
-30 21 -55 46 -25 26 -58 52 -75 59 -16 7 -40 25 -52 39 -13 14 -27 26 -33 26
-30 0 14 83 50 95 25 8 95 -24 205 -96 138 -89 165 -95 221 -53 29 23 34 32
34 67 0 55 22 147 35 145 19 -3 85 14 91 24 3 5 14 6 24 3 10 -3 21 -1 25 5 4
6 14 10 23 8 13 -2 20 -23 30 -83z m1562 -20 c0 -8 -4 -15 -10 -15 -5 0 -7 7
-4 15 4 8 8 15 10 15 2 0 4 -7 4 -15z m-2514 -121 c196 -48 393 -194 478 -354
10 -19 29 -49 42 -67 13 -17 24 -44 24 -59 0 -15 6 -35 14 -43 31 -37 60 -173
63 -303 4 -115 2 -128 -13 -128 -12 0 -14 -3 -6 -13 17 -20 -4 -103 -50 -207
-9 -19 -14 -39 -11 -43 3 -5 -2 -14 -11 -20 -9 -7 -30 -39 -46 -72 -31 -63
-165 -209 -230 -250 -72 -46 -154 -85 -209 -101 -31 -8 -70 -20 -87 -25 -17
-5 -80 -9 -141 -9 -91 0 -124 4 -188 25 -98 32 -200 85 -247 129 -21 19 -46
40 -56 48 -41 29 -140 157 -175 226 -31 61 -49 132 -33 132 10 0 85 -80 104
-112 13 -20 49 -60 80 -89 l57 -52 11 69 c6 38 17 93 23 123 6 29 11 76 11
103 0 27 4 57 10 67 5 10 12 60 15 112 4 52 10 103 15 114 4 11 13 61 20 110
16 120 26 184 45 285 9 47 18 111 22 143 3 31 9 60 14 63 5 3 9 30 9 61 l0 55
-35 -6 c-38 -7 -47 3 -15 19 39 20 116 57 135 65 54 24 271 26 361 4z m2462
-383 c10 -5 30 -10 43 -10 13 -1 34 -1 46 -1 11 0 24 -7 27 -15 3 -9 18 -15
36 -15 16 0 30 -4 30 -10 0 -12 4 -12 -61 1 -203 40 -357 35 -529 -18 l-85
-27 65 -12 c36 -7 128 -17 205 -23 294 -24 480 -53 566 -89 24 -11 73 -28 108
-38 75 -22 145 -83 179 -155 12 -24 26 -51 31 -59 28 -47 66 -140 68 -170 2
-19 8 -47 14 -62 18 -44 15 -282 -5 -363 -9 -38 -18 -77 -19 -85 -3 -23 -107
-232 -121 -244 -7 -6 -24 -30 -38 -52 -24 -37 -166 -164 -183 -164 -4 0 -32
-18 -62 -40 -31 -22 -62 -40 -69 -40 -8 0 -39 -11 -70 -25 -31 -14 -69 -25
-85 -25 -15 0 -40 -5 -56 -11 -41 -15 -258 -12 -320 5 -28 7 -54 12 -56 10 -2
-3 -17 2 -33 11 -16 8 -34 15 -40 15 -23 0 -234 125 -242 143 -2 4 -8 7 -14 7
-28 0 -208 221 -208 256 0 8 -3 14 -7 14 -10 0 -37 60 -58 125 -9 28 -18 57
-21 65 -10 25 -18 156 -19 295 0 111 4 141 24 205 13 41 30 82 36 90 6 8 18
31 25 50 7 19 24 46 37 61 12 14 23 29 23 33 0 12 79 104 134 155 61 58 153
121 176 121 10 0 23 7 30 15 7 8 19 15 26 15 8 0 14 4 14 9 0 4 19 11 41 14
23 3 45 10 48 15 7 10 70 23 115 23 16 0 36 4 45 10 20 12 182 4 209 -10z
m-3088 -1358 c0 -14 -19 -38 -25 -32 -8 8 5 39 16 39 5 0 9 -3 9 -7z m4664
-744 c-3 -64 -15 -101 -50 -146 -34 -45 -38 -54 -35 -85 2 -12 -3 -16 -13 -12
-9 3 -16 13 -16 21 0 8 -9 26 -20 40 -28 36 -25 69 15 144 34 65 50 76 83 55
8 -4 12 -1 12 9 0 9 6 15 13 12 7 -2 11 -19 11 -38z"/>
<path d="M4600 5086 c0 -26 23 -81 47 -114 55 -73 205 -141 333 -149 147 -10
248 26 264 93 11 42 -5 47 -75 23 -56 -19 -78 -21 -179 -16 -117 6 -160 17
-248 61 -46 23 -122 91 -122 108 0 4 -4 8 -10 8 -5 0 -10 -6 -10 -14z"/>
<path d="M4600 4531 c-130 -32 -255 -71 -269 -85 -11 -12 -10 -16 5 -24 11 -6
44 -35 74 -64 70 -68 122 -104 252 -173 116 -61 211 -97 306 -116 82 -15 363
-6 487 17 50 9 122 18 160 20 39 2 72 3 74 4 12 1 -41 47 -89 78 -30 19 -73
49 -95 67 -78 62 -206 143 -258 162 -102 39 -129 45 -220 47 -89 2 -94 3 -147
41 -51 36 -61 39 -130 41 -47 2 -103 -4 -150 -15z m260 -231 c30 -5 87 -14
125 -19 172 -27 264 -44 310 -58 64 -19 145 -55 145 -65 0 -5 7 -8 15 -8 34 0
12 -20 -22 -21 -193 -5 -424 4 -473 17 -113 32 -201 73 -273 128 -29 22 -35
31 -25 38 13 9 100 4 198 -12z"/>
<path d="M3871 4123 c-7 -31 -16 -63 -21 -72 -38 -79 -55 -356 -25 -415 8 -15
15 -32 15 -37 0 -19 57 -88 95 -115 l40 -29 203 2 c214 2 240 7 344 61 42 22
39 28 -22 61 -64 34 -180 110 -214 140 -72 63 -202 200 -256 271 -19 24 -41
51 -48 58 -19 21 -68 95 -75 115 -11 30 -22 18 -36 -40z"/>
<path d="M3930 6621 c-30 -10 -70 -25 -88 -35 -44 -23 -115 -93 -136 -133 -37
-74 -7 -91 55 -32 49 47 117 99 131 99 13 0 10 -36 -8 -91 -13 -38 -15 -72
-11 -137 5 -83 6 -88 39 -115 49 -42 206 -114 263 -122 28 -3 60 -9 73 -12 15
-4 22 -1 22 10 0 19 38 47 63 47 10 0 21 -9 24 -20 7 -25 10 -25 48 -2 43 27
119 129 131 177 9 38 18 37 59 -5 22 -22 43 -40 47 -40 14 0 8 25 -9 41 -10 9
-34 36 -53 60 -54 70 -170 179 -229 217 -158 101 -299 133 -421 93z m262 -79
c16 -15 17 -23 7 -50 -11 -32 -52 -62 -83 -62 -8 0 -28 14 -45 31 -35 35 -42
81 -13 99 25 15 112 4 134 -18z"/>
<path d="M6290 6226 c-119 -27 -202 -66 -300 -139 -130 -97 -181 -166 -179
-243 0 -21 3 -33 6 -27 13 33 148 154 156 142 2 -2 11 -31 21 -64 27 -90 51
-131 83 -142 100 -37 222 -63 294 -63 51 0 66 4 91 25 16 14 37 25 46 25 27 0
43 -15 36 -33 -5 -13 0 -17 20 -17 27 0 100 65 141 125 29 43 54 141 55 212 0
34 4 64 8 67 4 3 19 -2 33 -9 13 -8 35 -20 49 -27 29 -15 71 -47 180 -138 115
-97 121 -102 127 -96 24 24 -54 125 -170 220 -67 54 -212 132 -300 162 -70 23
-101 28 -212 30 -79 2 -151 -2 -185 -10z m40 -85 c0 -11 -14 -27 -34 -39 -28
-16 -38 -18 -57 -8 -35 17 -32 29 9 48 52 23 82 23 82 -1z"/>
</g>
</svg>
